<?xml version="1.0"?>
<svg xmlns:rdf="http://www.w3.org/1999/02/22-rdf-syntax-ns#" xmlns="http://www.w3.org/2000/svg" xmlns:cc="http://creativecommons.org/ns#" xmlns:xlink="http://www.w3.org/1999/xlink" xmlns:dc="http://purl.org/dc/elements/1.1/" xmlns:svg="http://www.w3.org/2000/svg" id="svg2" height="297mm" width="210mm" version="1.1">
  <defs id="defs4">
    <linearGradient id="linearGradient3687" x1="387.14" gradientUnits="userSpaceOnUse" y1="95.219" gradientTransform="matrix(1.6609 0 0 1.6609 -257.06 -27.523)" x2="397.14" y2="306.65">
      <stop id="stop3683" stop-color="#666" offset="0"/>
      <stop id="stop3685" stop-color="#666" stop-opacity="0" offset="1"/>
    </linearGradient>
  </defs>
  <g id="layer1">
    <path id="path3668" style="block-progression:tb;color:#000000;text-transform:none;text-indent:0" transform="matrix(1.6571 -.11142 .11142 1.6571 -273.06 12.097)" fill="#d40000" d="m409.38 76.812c-0.17314 0.0075-0.64049 0.04131-0.8125 0.0625s-0.64272 0.09023-0.8125 0.125-0.64601 0.13937-0.8125 0.1875-0.6191 0.22006-0.78125 0.28125-0.62447 0.23864-0.78125 0.3125-0.56832 0.28894-0.71875 0.375-0.57563 0.33977-0.71875 0.4375-0.52133 0.39123-0.65625 0.5l-39.688 32.125c-0.19177 0.15435-0.70182 0.63754-0.875 0.8125s-0.62887 0.68166-0.78125 0.875-0.55785 0.75949-0.6875 0.96875-0.45723 0.80872-0.5625 1.0312c-0.10527 0.22253-0.35795 0.86079-0.4375 1.0938-0.0795 0.23296-0.25968 0.88456-0.3125 1.125-0.0528 0.24044-0.16208 0.9114-0.1875 1.1562-0.0254 0.24485-0.0648 0.94134-0.0625 1.1875 0.002 0.24616 0.0325 0.94317 0.0625 1.1875s0.16144 0.91685 0.21875 1.1562c0.0573 0.2394 0.25985 0.89357 0.34375 1.125s0.35933 0.87323 0.46875 1.0938c0.10942 0.22052 0.4602 0.7932 0.59375 1s0.53152 0.7783 0.6875 0.96875 0.60483 0.70332 0.78125 0.875 0.71162 0.59927 0.90625 0.75l25.812 20.094-5 35.688v0.0625c-0.0399 0.24416-0.10961 0.79362-0.125 1-0.0163 0.2191-0.037 0.81162-0.0312 1.0312 0.006 0.21963 0.066 0.84456 0.0937 1.0625 0.0278 0.21794 0.13799 0.8172 0.1875 1.0312 0.0495 0.21405 0.21049 0.792 0.28125 1 0.0708 0.208 0.31496 0.80016 0.40625 1 0.0913 0.19984 0.35786 0.71659 0.46875 0.90625s0.43312 0.72868 0.5625 0.90625 0.54094 0.64882 0.6875 0.8125 0.5565 0.60186 0.71875 0.75 0.63619 0.52515 0.8125 0.65625 0.68642 0.48102 0.875 0.59375 0.73855 0.40678 0.9375 0.5c0.19895 0.0932 0.76145 0.30223 0.96875 0.375 0.2073 0.0728 0.78644 0.26091 1 0.3125 0.21356 0.0516 0.84484 0.15762 1.0625 0.1875 0.21766 0.0299 0.81169 0.0859 1.0312 0.0937 0.21956 0.008 0.84326-0.017 1.0625-0.0312s0.81454-0.0576 1.0312-0.0937c0.21671-0.0362 0.81927-0.19226 1.0312-0.25 0.21198-0.0577 0.79489-0.23377 1-0.3125 0.20511-0.0787 0.77258-0.33857 0.96875-0.4375 0.19617-0.0989 0.72101-0.38187 0.90625-0.5s0.70255-0.48887 0.875-0.625 0.62335-0.53474 0.78125-0.6875 0.57698-0.6134 0.71875-0.78125 0.5008-0.63127 0.625-0.8125 0.45713-0.71346 0.5625-0.90625 0.35202-0.73511 0.4375-0.9375c0.0855-0.20239 0.31028-0.79005 0.375-1 0.0647-0.20995 0.20669-0.81586 0.25-1.0312 0.0395-0.19625 0.12635-0.6811 0.15625-0.9375 0.003-0.025-0.002-0.0743 0-0.0937l5.8125-41.625c0.0394-0.28271 0.0915-1.0896 0.0937-1.375 0.002-0.28544-0.0275-1.0917-0.0625-1.375-0.035-0.28329-0.20958-1.0674-0.28125-1.3438-0.0717-0.2763-0.29915-1.0167-0.40625-1.2812-0.1071-0.26459-0.45306-1.0016-0.59375-1.25-0.14069-0.24836-0.57811-0.89711-0.75-1.125s-0.70611-0.82773-0.90625-1.0312c-0.20014-0.20352-0.80627-0.73057-1.0312-0.90625l-20.188-15.688 22.406-18.156 21.656 20.25c0.13247 0.12344 0.51401 0.45047 0.65625 0.5625s0.56771 0.40014 0.71875 0.5c0.15104 0.0999 0.5912 0.3505 0.75 0.4375s0.61579 0.33271 0.78125 0.40625c0.16546 0.0735 0.61026 0.25293 0.78125 0.3125 0.17099 0.0596 0.66841 0.2048 0.84375 0.25s0.66527 0.15699 0.84375 0.1875c0.17848 0.0305 0.69461 0.0781 0.875 0.0937l21.062 1.8438h0.0937c0.25689 0.0283 0.7678 0.0884 0.96875 0.0937 0.22023 0.006 0.81155-0.015 1.0312-0.0312 0.2197-0.0163 0.84555-0.0867 1.0625-0.125s0.81927-0.19002 1.0312-0.25c0.21198-0.06 0.79513-0.26273 1-0.34375 0.20487-0.081 0.77308-0.33626 0.96875-0.4375s0.72177-0.41082 0.90625-0.53125 0.67234-0.48661 0.84375-0.625 0.62464-0.53255 0.78125-0.6875 0.57854-0.61132 0.71875-0.78125 0.50261-0.66056 0.625-0.84375 0.42793-0.71167 0.53125-0.90625 0.38555-0.76476 0.46875-0.96875 0.28151-0.75742 0.34375-0.96875c0.0622-0.21133 0.20936-0.81472 0.25-1.0312 0.0406-0.21653 0.10637-0.84298 0.125-1.0625 0.0186-0.21952 0.0348-0.81097 0.0312-1.0312-0.004-0.22028-0.0368-0.8437-0.0625-1.0625s-0.10862-0.81615-0.15625-1.0312c-0.0476-0.2151-0.2122-0.82204-0.28125-1.0312-0.0691-0.20921-0.31649-0.76756-0.40625-0.96875-0.0898-0.20119-0.35918-0.77762-0.46875-0.96875s-0.43425-0.69587-0.5625-0.875-0.51061-0.6472-0.65625-0.8125-0.58846-0.6002-0.75-0.75-0.63669-0.55473-0.8125-0.6875-0.68672-0.47936-0.875-0.59375-0.70741-0.40515-0.90625-0.5c-0.19884-0.0948-0.76137-0.3319-0.96875-0.40625-0.20738-0.0743-0.81744-0.25941-1.0312-0.3125-0.21381-0.0531-0.81318-0.15621-1.0312-0.1875-0.20497-0.0294-0.72024-0.08-0.96875-0.0937h-0.0625l-17.406-1.5312-25.719-24c-0.15877-0.14837-0.63977-0.5244-0.8125-0.65625s-0.65877-0.47973-0.84375-0.59375-0.71085-0.40493-0.90625-0.5-0.76486-0.33108-0.96875-0.40625-0.78965-0.25797-1-0.3125-0.78527-0.1854-1-0.21875-0.84552-0.08192-1.0625-0.09375-0.81417-0.0098-1.0312 0z"/>
    <path id="path3594" style="color:#000000" fill="#666" d="m486 70.984c0 16.202-13.134 29.336-29.336 29.336s-29.336-13.134-29.336-29.336 13.134-29.336 29.336-29.336 29.336 13.134 29.336 29.336zm14.729 112.02c-38.073 0-69.065 30.992-69.065 69.065s30.992 69.065 69.065 69.065 69.065-30.992 69.065-69.065-30.992-69.065-69.065-69.065zm0 13.717c30.665 0 55.429 24.683 55.429 55.348s-24.763 55.348-55.429 55.348c-30.665 0-55.348-24.683-55.348-55.348s24.683-55.348 55.348-55.348zm-194.78-13.72c-38.073 0-69.065 30.992-69.065 69.065s30.992 69.065 69.065 69.065 69.065-30.992 69.065-69.065-30.992-69.065-69.065-69.065zm0 13.717c30.665 0 55.429 24.683 55.429 55.348s-24.763 55.348-55.429 55.348c-30.665 0-55.348-24.683-55.348-55.348s24.683-55.348 55.348-55.348z"/>
    <path id="path3677" style="color:#000000" fill="url(#linearGradient3687)" d="m486 508.06c0-12.075-13.134-21.864-29.336-21.864s-29.336 9.789-29.336 21.864 13.134 21.864 29.336 21.864 29.336-9.789 29.336-21.864zm14.729-83.487c-38.073 0-69.065-23.099-69.065-51.475s30.992-51.475 69.065-51.475 69.065 23.099 69.065 51.475-30.992 51.475-69.065 51.475zm0-10.223c30.665 0 55.429-18.397 55.429-41.252s-24.763-41.252-55.429-41.252c-30.665 0-55.348 18.397-55.348 41.252s24.683 41.252 55.348 41.252zm-194.78 10.223c-38.073 0-69.065-23.099-69.065-51.475s30.992-51.475 69.065-51.475 69.065 23.099 69.065 51.475-30.992 51.475-69.065 51.475zm0-10.223c30.665 0 55.429-18.397 55.429-41.252s-24.764-41.252-55.429-41.252-55.348 18.397-55.348 41.252 24.683 41.252 55.348 41.252zm107.93 76.72c-0.28608-0.0236-1.0568-0.1043-1.3394-0.14466-0.28267-0.0405-1.055-0.16476-1.3325-0.22186-0.27748-0.0571-1.055-0.22578-1.3255-0.29904-0.27053-0.0732-1.0014-0.32322-1.2633-0.41225-0.26189-0.089-1.0082-0.34659-1.2598-0.45083-0.25159-0.1043-0.90959-0.40405-1.1493-0.52285-0.2397-0.11875-0.91603-0.46744-1.1423-0.60002-0.22627-0.13254-0.82031-0.52649-1.0318-0.67205l-62.188-42.972c-0.30059-0.20656-1.092-0.84568-1.3594-1.0762-0.26748-0.23046-0.96617-0.89412-1.1971-1.1456-0.23098-0.25142-0.83982-0.98435-1.0314-1.2536-0.19151-0.26921-0.66756-1.0368-0.81722-1.3204-0.14964-0.28358-0.49725-1.0929-0.60313-1.3872-0.10579-0.29432-0.33175-1.1141-0.39249-1.4154-0.0606-0.30135-0.16705-1.1391-0.18188-1.4436-0.0149-0.3045-0.003-1.168 0.0287-1.4718 0.0307-0.30387 0.15895-1.1622 0.23588-1.4615 0.0769-0.29927 0.36967-1.119 0.49133-1.4099 0.12157-0.29091 0.53016-1.082 0.69497-1.3609 0.16476-0.27887 0.69274-1.0487 0.89864-1.3119 0.2059-0.26328 0.85097-0.94144 1.0953-1.1858 0.24434-0.24431 0.9675-0.91713 1.2472-1.1394 0.27969-0.22226 1.0806-0.81842 1.3921-1.0158 0.31146-0.19739 1.246-0.68107 1.5853-0.85106l45.013-22.674-4.3094-44.492 0.007-0.0772c-0.0389-0.30487-0.0932-0.98929-0.0957-1.2454-0.003-0.27196 0.0291-1.0055 0.0631-1.2763 0.0344-0.27077 0.20347-1.0376 0.27366-1.3045 0.0703-0.26686 0.31972-0.99784 0.4256-1.2581 0.10596-0.26025 0.43705-0.9607 0.57749-1.2117 0.14051-0.25102 0.61107-0.9621 0.78463-1.2014 0.17356-0.23923 0.67284-0.85531 0.87775-1.0804 0.20488-0.22503 0.7989-0.86402 1.0331-1.0726 0.23418-0.20857 0.9687-0.75642 1.2298-0.94642 0.26111-0.18999 0.98924-0.69712 1.2746-0.86661 0.28537-0.1695 1.1127-0.59578 1.4195-0.74305 0.30678-0.14732 1.1911-0.5371 1.5161-0.66067 0.32506-0.12357 1.2692-0.44108 1.6093-0.53968 0.34006-0.0987 1.2955-0.31005 1.6471-0.38271 0.35164-0.0728 1.3323-0.25694 1.692-0.30291 0.35965-0.046 1.4176-0.12457 1.7816-0.14333 0.36403-0.0188 1.3546-0.0387 1.7193-0.0301 0.36474 0.008 1.3955 0.091 1.7572 0.12672 0.36172 0.0357 1.3434 0.13885 1.6985 0.20136 0.35508 0.0626 1.3362 0.30547 1.681 0.39439 0.34486 0.0889 1.2912 0.35474 1.6223 0.46901 0.33113 0.11427 1.2425 0.48231 1.5566 0.62079 0.31406 0.13835 1.1522 0.53151 1.446 0.6928 0.2938 0.16127 1.1097 0.66213 1.3803 0.84458 0.2706 0.18244 0.97339 0.71221 1.218 0.91399 0.24465 0.20179 0.88778 0.8055 1.104 1.0246 0.21622 0.21906 0.75956 0.82124 0.94518 1.0554 0.18561 0.23415 0.67802 0.91914 0.83116 1.166 0.15313 0.24685 0.50143 0.93714 0.62053 1.1942 0.11908 0.25707 0.42614 1.0015 0.51 1.2662 0.0839 0.26469 0.2516 1.0248 0.29937 1.2944 0.0435 0.24567 0.13353 0.8517 0.15446 1.1709 0.002 0.031-0.0116 0.0917-0.01 0.11576l4.9942 51.893c0.0337 0.35242 0.0302 1.3533 0.002 1.706-0.0286 0.3527-0.16721 1.3461-0.25677 1.693-0.0895 0.34697-0.46623 1.301-0.61578 1.6363-0.14964 0.33531-0.609 1.2308-0.81596 1.5487s-0.86237 1.1995-1.1232 1.4945c-0.26081 0.29507-1.058 1.06-1.3682 1.3272-0.31023 0.26719-1.2623 0.96367-1.6167 1.1984-0.35432 0.23473-1.4175 0.83535-1.8099 1.0336l-35.201 17.699 35.107 24.285 38.143-23.212c0.23328-0.14151 0.90198-0.51369 1.1502-0.64024 0.2482-0.12656 0.98534-0.44706 1.2468-0.55785 0.26142-0.11078 1.0187-0.38381 1.2916-0.47807 0.27284-0.0943 1.0575-0.35979 1.3399-0.43687 0.28236-0.0771 1.0394-0.2617 1.3294-0.32109 0.28999-0.0595 1.1304-0.19743 1.426-0.23868 0.2956-0.0412 1.1199-0.13869 1.4191-0.16144 0.29915-0.0229 1.1597-0.0387 1.4604-0.043l35.108-0.5281 0.15529 0.007c0.42885-0.0133 1.2822-0.0455 1.6158-0.0352 0.3656 0.0116 1.3432 0.0859 1.7054 0.12424 0.36225 0.0384 1.3915 0.17729 1.7468 0.24261 0.35525 0.0654 1.3365 0.30271 1.6811 0.39441 0.34458 0.0917 1.2883 0.39052 1.6188 0.50759 0.33048 0.11709 1.2436 0.47951 1.5566 0.6208 0.31297 0.14134 1.1503 0.56733 1.4426 0.73139 0.29229 0.16409 1.0599 0.65684 1.3286 0.84199 0.26863 0.18515 0.97577 0.70962 1.218 0.91399 0.24225 0.20438 0.8906 0.80307 1.104 1.0246 0.21342 0.22152 0.7593 0.85758 0.94169 1.094 0.18241 0.2364 0.62985 0.91448 0.77938 1.1634 0.14947 0.24889 0.55369 0.97655 0.66884 1.2354 0.1151 0.25886 0.3821 0.95885 0.46169 1.225 0.0796 0.26616 0.25617 1.0236 0.29938 1.2944 0.0432 0.27078 0.0824 1.05 0.0887 1.3226 0.007 0.27266-0.0327 1.0045-0.0631 1.2762-0.0312 0.27173-0.15496 1.039-0.22196 1.3071-0.0669 0.2681-0.27093 0.99899-0.37382 1.2607-0.10281 0.2617-0.44324 0.99764-0.58097 1.2503-0.13785 0.25265-0.60997 0.92169-0.78114 1.1627-0.17121 0.24103-0.68184 0.9306-0.8847 1.1576-0.20288 0.22695-0.79713 0.82338-1.0296 1.034-0.23249 0.2106-0.91825 0.75694-1.178 0.949-0.25976 0.19206-1.042 0.69243-1.3264 0.86403-0.28439 0.1716-1.1169 0.63227-1.423 0.78163-0.30614 0.14948-1.1914 0.53503-1.5161 0.66067-0.32473 0.12557-1.2174 0.44166-1.5575 0.54227-0.34006 0.10065-1.2987 0.34671-1.6506 0.42131-0.35192 0.0746-1.3835 0.25252-1.7437 0.30034-0.36022 0.0478-1.3649 0.12539-1.7298 0.14599-0.34294 0.0193-1.2024 0.039-1.6158 0.0352l-0.10363-0.005-29.015 0.44575-45.293 27.506c-0.27964 0.17005-1.1186 0.59453-1.4195 0.74303-0.30091 0.14848-1.1451 0.5378-1.4643 0.66327-0.31924 0.12539-1.2231 0.44109-1.5575 0.54227-0.3344 0.10114-1.3044 0.34541-1.6506 0.42131-0.34624 0.0759-1.3373 0.25305-1.6919 0.30292-0.35466 0.0498-1.322 0.16376-1.6815 0.18713-0.35956 0.0234-1.4102 0.0309-1.7711 0.0276-0.36087-0.003-1.3503-0.0555-1.7089-0.0857z"/>
  </g>
  <metadata>
    <rdf:RDF>
      <cc:Work>
        <dc:format>image/svg+xml</dc:format>
        <dc:type rdf:resource="http://purl.org/dc/dcmitype/StillImage"/>
        <cc:license rdf:resource="http://creativecommons.org/licenses/publicdomain/"/>
        <dc:publisher>
          <cc:Agent rdf:about="http://openclipart.org/">
            <dc:title>Openclipart</dc:title>
          </cc:Agent>
        </dc:publisher>
        <dc:title>bike</dc:title>
        <dc:date>2010-05-07T14:05:23</dc:date>
        <dc:description>bike image</dc:description>
        <dc:source>http://openclipart.org/detail/58981/bike-by-voyeg3r-58981</dc:source>
        <dc:creator>
          <cc:Agent>
            <dc:title>voyeg3r</dc:title>
          </cc:Agent>
        </dc:creator>
        <dc:subject>
          <rdf:Bag>
            <rdf:li>bike</rdf:li>
            <rdf:li>ciclism</rdf:li>
            <rdf:li>clip art</rdf:li>
            <rdf:li>clipart</rdf:li>
            <rdf:li>sport</rdf:li>
          </rdf:Bag>
        </dc:subject>
      </cc:Work>
      <cc:License rdf:about="http://creativecommons.org/licenses/publicdomain/">
        <cc:permits rdf:resource="http://creativecommons.org/ns#Reproduction"/>
        <cc:permits rdf:resource="http://creativecommons.org/ns#Distribution"/>
        <cc:permits rdf:resource="http://creativecommons.org/ns#DerivativeWorks"/>
      </cc:License>
    </rdf:RDF>
  </metadata>
</svg>
